<svg width="297" height="102" viewBox="0 0 297 102" fill="none" xmlns="http://www.w3.org/2000/svg">
<path d="M27.1973 78.2207C21.696 78.2207 16.9108 77.3418 12.8418 75.584C8.77279 73.7936 5.61523 71.0267 3.36914 67.2832C1.12305 63.5397 0 58.7057 0 52.7812C0 43.8945 2.27865 37.1725 6.83594 32.6152C11.3932 28.0579 17.4479 25.7793 25 25.7793C29.9154 25.7793 34.0658 26.6582 37.4512 28.416C40.8691 30.1738 43.457 32.599 45.2148 35.6914C47.0052 38.7839 47.9004 42.3158 47.9004 46.2871C47.9004 50.1608 46.9076 52.8626 44.9219 54.3926C42.9362 55.9225 40.0391 56.6875 36.2305 56.6875H15.2832C15.5436 60.0404 16.7643 62.5957 18.9453 64.3535C21.1589 66.1113 24.1536 66.9902 27.9297 66.9902C30.9245 66.9902 33.3171 66.5508 35.1074 65.6719C36.9303 64.7604 38.1999 64.0443 38.916 63.5234C39.5345 63.0677 40.2344 62.8561 41.0156 62.8887C41.6341 62.8887 42.513 63.0189 43.6523 63.2793C44.8242 63.5072 45.9798 63.9466 47.1191 64.5977C47.9329 65.0208 48.3398 65.6068 48.3398 66.3555C48.3398 66.7786 48.2585 67.3809 48.0957 68.1621C47.998 68.6178 47.8353 69.2852 47.6074 70.1641C47.3796 71.0104 47.0866 71.8079 46.7285 72.5566C46.5332 72.9147 46.224 73.2565 45.8008 73.582C45.1497 74.0378 44.0918 74.64 42.627 75.3887C41.1947 76.1374 39.2253 76.7884 36.7188 77.3418C34.2122 77.9277 31.0384 78.2207 27.1973 78.2207ZM15.1855 46.6777H31.1035C32.7637 46.6777 33.5938 45.9128 33.5938 44.3828C33.5938 42.0716 32.8613 40.1348 31.3965 38.5723C29.9642 36.9772 27.7995 36.1797 24.9023 36.1797C21.7448 36.1797 19.4173 37.1888 17.9199 39.207C16.4551 41.2253 15.5436 43.7155 15.1855 46.6777Z" fill="#7D00D2"/>
<path d="M74.0723 36.2773H74.2676C76.709 29.5065 81.1035 26.1211 87.4512 26.1211C88.265 26.1211 88.9323 26.1699 89.4531 26.2676C89.974 26.3327 90.332 26.3978 90.5273 26.4629C91.0156 26.6257 91.2598 27 91.2598 27.5859V39.3535C91.2598 40.3626 90.6738 40.6393 89.502 40.1836C89.1113 40.0208 88.5417 39.8581 87.793 39.6953C87.0768 39.5 86.0677 39.4023 84.7656 39.4023C81.4128 39.4023 78.7923 40.6393 76.9043 43.1133C75.0163 45.5547 74.0723 48.8913 74.0723 53.123V74.4121C74.0723 75.3887 73.8607 76.0723 73.4375 76.4629C73.0469 76.821 72.3633 77 71.3867 77H61.3281C60.3516 77 59.6517 76.821 59.2285 76.4629C58.8379 76.0723 58.6426 75.3887 58.6426 74.4121V33.4941C58.6426 32.7129 58.8053 32.1107 59.1309 31.6875C59.8145 30.776 60.6283 29.8483 61.5723 28.9043C62.5488 27.9603 63.737 26.9512 65.1367 25.877C65.3971 25.6816 65.6576 25.5514 65.918 25.4863C66.1784 25.4212 66.4062 25.3887 66.6016 25.3887C67.0573 25.3887 67.513 25.5514 67.9688 25.877C70.6706 27.9928 72.5586 29.7995 73.6328 31.2969C73.9258 31.6875 74.0723 32.1432 74.0723 32.6641V36.2773Z" fill="#7D00D2"/>
<path d="M129.688 25.7793C134.44 25.7793 138.346 26.8535 141.406 29.002C144.499 31.1178 146.794 34.0475 148.291 37.791C149.821 41.502 150.586 45.7663 150.586 50.584C150.586 55.7923 149.691 60.4798 147.9 64.6465C146.143 68.8132 143.538 72.1172 140.088 74.5586C136.637 77 132.357 78.2207 127.246 78.2207C124.609 78.2207 122.428 77.9115 120.703 77.293C119.01 76.707 117.643 76.0072 116.602 75.1934C115.592 74.347 114.795 73.582 114.209 72.8984H114.014V93.6992C114.014 94.4805 113.851 95.0827 113.525 95.5059C112.158 97.2962 110.156 99.2331 107.52 101.316C107.064 101.642 106.657 101.805 106.299 101.805C105.908 101.805 105.501 101.642 105.078 101.316C103.678 100.242 102.49 99.2331 101.514 98.2891C100.57 97.3451 99.7559 96.4173 99.0723 95.5059C98.7467 95.0827 98.584 94.4805 98.584 93.6992V33.4941C98.584 32.7129 98.7467 32.1107 99.0723 31.6875C99.7559 30.776 100.57 29.8483 101.514 28.9043C102.49 27.9603 103.678 26.9512 105.078 25.877C105.501 25.5514 105.941 25.3887 106.396 25.3887C106.82 25.3887 107.259 25.5514 107.715 25.877C109.082 26.9512 110.254 27.9766 111.23 28.9531C112.207 29.9297 113.07 30.9388 113.818 31.9805H114.062C114.616 31.2969 115.462 30.4668 116.602 29.4902C117.741 28.5137 119.352 27.651 121.436 26.9023C123.551 26.1536 126.302 25.7793 129.688 25.7793ZM123.682 65.7695C127.197 65.7695 129.915 64.5488 131.836 62.1074C133.789 59.6335 134.766 56.069 134.766 51.4141C134.766 42.625 131.152 38.2305 123.926 38.2305C120.866 38.2305 118.604 38.8652 117.139 40.1348C115.674 41.3717 114.632 42.6901 114.014 44.0898V54.6855C114.014 57.8431 114.827 60.4798 116.455 62.5957C118.083 64.7116 120.492 65.7695 123.682 65.7695Z" fill="#7D00D2"/>
<path d="M176.514 74.4121C176.514 75.3887 176.302 76.0723 175.879 76.4629C175.488 76.821 174.805 77 173.828 77H163.77C162.793 77 162.093 76.821 161.67 76.4629C161.279 76.0723 161.084 75.3887 161.084 74.4121V8.34766C161.084 7.56641 161.247 6.96419 161.572 6.54102C162.939 4.75065 164.941 2.8138 167.578 0.730469C168.034 0.404948 168.441 0.242188 168.799 0.242188C169.222 0.242188 169.629 0.404948 170.02 0.730469C171.419 1.80469 172.591 2.8138 173.535 3.75781C174.512 4.70182 175.342 5.62956 176.025 6.54102C176.351 6.96419 176.514 7.56641 176.514 8.34766V32.0293H176.709C177.425 31.0853 178.353 30.1413 179.492 29.1973C180.632 28.2207 182.145 27.4069 184.033 26.7559C185.954 26.1048 188.395 25.7793 191.357 25.7793C194.352 25.7793 197.233 26.3978 200 27.6348C202.767 28.8717 205.029 30.9551 206.787 33.8848C208.545 36.8145 209.424 40.8184 209.424 45.8965V74.4121C209.424 75.3887 209.212 76.0723 208.789 76.4629C208.398 76.821 207.715 77 206.738 77H196.68C195.703 77 195.003 76.821 194.58 76.4629C194.189 76.0723 193.994 75.3887 193.994 74.4121V48.582C193.994 44.9688 193.245 42.3483 191.748 40.7207C190.251 39.0605 188.216 38.2305 185.645 38.2305C183.105 38.2305 181.136 38.7839 179.736 39.8906C178.337 40.9974 177.262 42.3971 176.514 44.0898V74.4121Z" fill="#7D00D2"/>
<path d="M220.361 10.5938C220.361 10.1706 220.492 9.79622 220.752 9.4707C221.012 9.14518 221.354 8.72201 221.777 8.20117C222.689 7.15951 223.747 6.06901 224.951 4.92969C226.156 3.75781 227.376 2.63477 228.613 1.56055C229.395 0.942057 229.98 0.632812 230.371 0.632812C230.762 0.632812 231.364 0.942057 232.178 1.56055C234.814 3.83919 237.061 6.05273 238.916 8.20117C239.339 8.68945 239.681 9.11263 239.941 9.4707C240.234 9.79622 240.381 10.1706 240.381 10.5938C240.381 11.0169 240.234 11.3913 239.941 11.7168C239.681 12.0423 239.323 12.4818 238.867 13.0352C237.988 14.0443 236.963 15.1348 235.791 16.3066C234.619 17.446 233.415 18.5365 232.178 19.5781C231.722 19.9688 231.364 20.2292 231.104 20.3594C230.843 20.457 230.599 20.5059 230.371 20.5059C230.143 20.5059 229.899 20.457 229.639 20.3594C229.411 20.2292 229.036 19.9688 228.516 19.5781C227.214 18.5365 225.993 17.446 224.854 16.3066C223.714 15.1348 222.689 14.0117 221.777 12.9375C221.354 12.4167 221.012 12.0098 220.752 11.7168C220.492 11.3913 220.361 11.0169 220.361 10.5938ZM238.037 74.4121C238.037 75.3887 237.826 76.0723 237.402 76.4629C237.012 76.821 236.328 77 235.352 77H225.293C224.316 77 223.617 76.821 223.193 76.4629C222.803 76.0723 222.607 75.3887 222.607 74.4121V29.5879C222.607 28.6113 222.803 27.944 223.193 27.5859C223.617 27.1953 224.316 27 225.293 27H235.352C236.328 27 237.012 27.1953 237.402 27.5859C237.826 27.944 238.037 28.6113 238.037 29.5879V74.4121Z" fill="#7D00D2"/>
<path d="M275.83 78.2207C270.329 78.2207 265.544 77.3418 261.475 75.584C257.406 73.7936 254.248 71.0267 252.002 67.2832C249.756 63.5397 248.633 58.7057 248.633 52.7812C248.633 43.8945 250.911 37.1725 255.469 32.6152C260.026 28.0579 266.081 25.7793 273.633 25.7793C278.548 25.7793 282.699 26.6582 286.084 28.416C289.502 30.1738 292.09 32.599 293.848 35.6914C295.638 38.7839 296.533 42.3158 296.533 46.2871C296.533 50.1608 295.54 52.8626 293.555 54.3926C291.569 55.9225 288.672 56.6875 284.863 56.6875H263.916C264.176 60.0404 265.397 62.5957 267.578 64.3535C269.792 66.1113 272.786 66.9902 276.562 66.9902C279.557 66.9902 281.95 66.5508 283.74 65.6719C285.563 64.7604 286.833 64.0443 287.549 63.5234C288.167 63.0677 288.867 62.8561 289.648 62.8887C290.267 62.8887 291.146 63.0189 292.285 63.2793C293.457 63.5072 294.613 63.9466 295.752 64.5977C296.566 65.0208 296.973 65.6068 296.973 66.3555C296.973 66.7786 296.891 67.3809 296.729 68.1621C296.631 68.6178 296.468 69.2852 296.24 70.1641C296.012 71.0104 295.719 71.8079 295.361 72.5566C295.166 72.9147 294.857 73.2565 294.434 73.582C293.783 74.0378 292.725 74.64 291.26 75.3887C289.827 76.1374 287.858 76.7884 285.352 77.3418C282.845 77.9277 279.671 78.2207 275.83 78.2207ZM263.818 46.6777H279.736C281.396 46.6777 282.227 45.9128 282.227 44.3828C282.227 42.0716 281.494 40.1348 280.029 38.5723C278.597 36.9772 276.432 36.1797 273.535 36.1797C270.378 36.1797 268.05 37.1888 266.553 39.207C265.088 41.2253 264.176 43.7155 263.818 46.6777Z" fill="#7D00D2"/>
</svg>
